# xmcd CD database file generated by OrangeCD 6.4
#
# Track frame offsets:
#	150
#	21130
#	38287
#	51982
#	71182
#	87370
#	103260
#	122765
#	143520
#	168280
#	194450
#	222540
#	232705
#	257572
#	285880
#
# Disc length: 4056 seconds
#
# Revision: 6
# Processed by: cddbd v1.5.2PL0 Copyright (c) Steve Scherf et al.
# Submitted via: OrangeCD 6.4
#
DISCID=cc0fd60f
DTITLE=Various Artist - The Best of Austin City Limits: Big Blues Extravaganza
DYEAR=1998
DGENRE=Blues
TTITLE0=Albert Collins - Travellin' South
TTITLE1=Lightnin' Hopkins - Rock Me Baby
TTITLE2=Stevie Ray Vaughan - Love Struck Baby
TTITLE3=Jimmie Vaughan - Six Strings Down
TTITLE4=Miss Lavelle White - I've Never Found A Man
TTITLE5=Keb' Mo' - Tell Everybody I Know
TTITLE6=Gatemouth Brown - Born In Louisiana
TTITLE7=Dr. John - Since I Fell For You
TTITLE8=Buddy Guy - Mary Had A Little Lamb
TTITLE9=Taj Mahal - Queen Bee
TTITLE10=The Neville Brothers - Yellow Moon
TTITLE11=Rory Block - Big Road Blues
TTITLE12=W. C. Clark - Ain't It Funny How Time Slips Away
TTITLE13=B. B. King - Night Life
TTITLE14=Delbert McClinton - Leap Of Faith
EXTD=
EXTT0=
EXTT1=
EXTT2=
EXTT3=
EXTT4=
EXTT5=
EXTT6=
EXTT7=
EXTT8=
EXTT9=
EXTT10=
EXTT11=
EXTT12=
EXTT13=
EXTT14=
PLAYORDER=
